<svg xmlns="http://www.w3.org/2000/svg" xmlns:xlink="http://www.w3.org/1999/xlink" xml:lang="en" height="352.64pt" width="937.9999999999999pt" viewBox="-51.4 -112.6 937.9999999999999 352.64" style="background-color:white;"><path d="M -46.800000000000004,226.79999999999998 L -46.8,-108 L 882,-108 L 882,226.8 L -46.8,226.8" style="stroke:gray;fill:none;stroke-width:2.0;stroke-dasharray:7.4,3.2;stroke-linecap:round;stroke-linejoin:round;" /><polygon points="81,162.9 72,175.5 63,162.9 " style="stroke:black;fill:none;stroke-width:2.0;stroke-dasharray:-;stroke-linecap:round;stroke-linejoin:round;" /><polygon points="180.9,117 193.5,126 180.9,135 " style="stroke:black;fill:none;stroke-width:2.0;stroke-dasharray:-;stroke-linecap:round;stroke-linejoin:round;" /><polygon points="383.4,162.9 374.4,175.5 365.4,162.9 " style="stroke:black;fill:none;stroke-width:2.0;stroke-dasharray:-;stroke-linecap:round;stroke-linejoin:round;" /><path d="M 0.0,-0.0 L -0,19.8 L -0,39.6" style="stroke:black;fill:none;stroke-width:2.0;stroke-dasharray:-;stroke-linecap:round;stroke-linejoin:round;" /><path d="M -7.274401986935278e-15,39.6 L -0,64.8 L 9,67.8 L -9,73.8 L 9,79.8 L -9,85.8 L 9,91.8 L -9,97.8 L -0,100.8 L -0,126" style="stroke:black;fill:none;stroke-width:2.0;stroke-dasharray:-;stroke-linecap:round;stroke-linejoin:round;" /><path d="M -2.3145824503884975e-14,126.0" style="stroke:black;fill:none;stroke-width:2.0;stroke-dasharray:-;stroke-linecap:round;stroke-linejoin:round;" /><path d="M -2.3145824503884975e-14,126.0 L -0,151.2 L 9,154.2 L -9,160.2 L 9,166.2 L -9,172.2 L 9,178.2 L -9,184.2 L -0,187.2 L -0,212.4" style="stroke:black;fill:none;stroke-width:2.0;stroke-dasharray:-;stroke-linecap:round;stroke-linejoin:round;" /><path d="M -3.9017247020834666e-14,212.4 L -0,226.8 L -9,226.8 L 9,226.8 M -6.3,231.12 L 6.3,231.12 M -1.8,235.44 L 1.8,235.44" style="stroke:black;fill:none;stroke-width:2.0;stroke-dasharray:-;stroke-linecap:round;stroke-linejoin:round;" /><path d="M -2.3145824503884975e-14,126.0 L 36,126 L 72,126" style="stroke:black;fill:none;stroke-width:2.0;stroke-dasharray:-;stroke-linecap:round;stroke-linejoin:round;" /><path d="M 71.99999999999997,126.0 L 72,162.9 M 81,175.5 L 63,175.5 M 72,175.5 L 72,212.4" style="stroke:black;fill:none;stroke-width:2.0;stroke-dasharray:-;stroke-linecap:round;stroke-linejoin:round;" /><path d="M 80.99999999999997,175.5 L 84.6,179.1" style="stroke:black;fill:none;stroke-width:2.0;stroke-dasharray:-;stroke-linecap:round;stroke-linejoin:round;" /><path d="M 62.99999999999997,175.5 L 59.4,171.9" style="stroke:black;fill:none;stroke-width:2.0;stroke-dasharray:-;stroke-linecap:round;stroke-linejoin:round;" /><path d="M 71.99999999999996,212.4 L 72,226.8 L 63,226.8 L 81,226.8 M 65.7,231.12 L 78.3,231.12 M 70.2,235.44 L 73.8,235.44" style="stroke:black;fill:none;stroke-width:2.0;stroke-dasharray:-;stroke-linecap:round;stroke-linejoin:round;" /><path d="M -2.3145824503884975e-14,126.0 L 72,126 L 144,126" style="stroke:black;fill:none;stroke-width:2.0;stroke-dasharray:-;stroke-linecap:round;stroke-linejoin:round;" /><path d="M 143.99999999999997,126.0 L 180.9,126 M 193.5,117 L 193.5,135 M 193.5,126 L 230.4,126" style="stroke:black;fill:none;stroke-width:2.0;stroke-dasharray:-;stroke-linecap:round;stroke-linejoin:round;" /><path d="M 230.39999999999998,126.0" style="stroke:black;fill:none;stroke-width:2.0;stroke-dasharray:-;stroke-linecap:round;stroke-linejoin:round;" /><path d="M 230.39999999999998,126.0 L 230.4,165.96 M 239.4,165.96 L 221.4,165.96 M 239.4,172.44 L 221.4,172.44 M 230.4,172.44 L 230.4,212.4" style="stroke:black;fill:none;stroke-width:2.0;stroke-dasharray:-;stroke-linecap:round;stroke-linejoin:round;" /><path d="M 230.39999999999998,212.39999999999998 L 230.4,226.8 L 221.4,226.8 L 239.4,226.8 M 224.1,231.12 L 236.7,231.12 M 228.6,235.44 L 232.2,235.44" style="stroke:black;fill:none;stroke-width:2.0;stroke-dasharray:-;stroke-linecap:round;stroke-linejoin:round;" /><path d="M 230.39999999999998,126.0 L 266.4,126 L 302.4,126" style="stroke:black;fill:none;stroke-width:2.0;stroke-dasharray:-;stroke-linecap:round;stroke-linejoin:round;" /><path d="M 302.4,126.0 L 302.4,151.2 L 311.4,154.2 L 293.4,160.2 L 311.4,166.2 L 293.4,172.2 L 311.4,178.2 L 293.4,184.2 L 302.4,187.2 L 302.4,212.4" style="stroke:black;fill:none;stroke-width:2.0;stroke-dasharray:-;stroke-linecap:round;stroke-linejoin:round;" /><path d="M 302.4,212.4 L 302.4,226.8 L 293.4,226.8 L 311.4,226.8 M 296.1,231.12 L 308.7,231.12 M 300.6,235.44 L 304.2,235.44" style="stroke:black;fill:none;stroke-width:2.0;stroke-dasharray:-;stroke-linecap:round;stroke-linejoin:round;" /><path d="M 230.39999999999998,126.0 L 302.4,126 L 374.4,126" style="stroke:black;fill:none;stroke-width:2.0;stroke-dasharray:-;stroke-linecap:round;stroke-linejoin:round;" /><path d="M 374.4,126.0 L 374.4,162.9 M 383.4,175.5 L 365.4,175.5 M 374.4,175.5 L 374.4,212.4" style="stroke:black;fill:none;stroke-width:2.0;stroke-dasharray:-;stroke-linecap:round;stroke-linejoin:round;" /><path d="M 383.4,175.5 L 387,179.1" style="stroke:black;fill:none;stroke-width:2.0;stroke-dasharray:-;stroke-linecap:round;stroke-linejoin:round;" /><path d="M 365.4,175.5 L 361.8,171.9" style="stroke:black;fill:none;stroke-width:2.0;stroke-dasharray:-;stroke-linecap:round;stroke-linejoin:round;" /><path d="M 374.4,212.4 L 374.4,226.8 L 365.4,226.8 L 383.4,226.8 M 368.1,231.12 L 380.7,231.12 M 372.6,235.44 L 376.2,235.44" style="stroke:black;fill:none;stroke-width:2.0;stroke-dasharray:-;stroke-linecap:round;stroke-linejoin:round;" /><path d="M 230.39999999999998,126.0 L 342,126 L 453.6,126" style="stroke:black;fill:none;stroke-width:2.0;stroke-dasharray:-;stroke-linecap:round;stroke-linejoin:round;" /><text x="-6.6130927153957075e-15" y="9.0" dominant-baseline="ideographic" fill="black" font-size="9" font-family="sans" text-anchor="middle"><tspan x="-6.6130927153957075e-15" dy="9">R1–R10</tspan><tspan x="-6.6130927153957075e-15" dy="9">10×100MΩ series</tspan><tspan x="-6.6130927153957075e-15" dy="9">(air-gap spaced)</tspan></text><text x="-2.2484515232345402e-14" y="105.39999999999999" dominant-baseline="ideographic" fill="black" font-size="8.5" font-family="sans" text-anchor="middle"><tspan x="-2.2484515232345402e-14" dy="8.5">Rsense</tspan><tspan x="-2.2484515232345402e-14" dy="8.5">270kΩ 1%</tspan></text><text x="71.99999999999997" y="105.39999999999999" dominant-baseline="ideographic" fill="black" font-size="8.5" font-family="sans" text-anchor="middle"><tspan x="71.99999999999997" dy="8.5">D1</tspan><tspan x="71.99999999999997" dy="8.5">3.3V clamp</tspan></text><text x="187.2" y="95.39999999999999" dominant-baseline="ideographic" fill="black" font-size="9" font-family="sans" text-anchor="middle"><tspan x="187.2" dy="9">D_peak</tspan><tspan x="187.2" dy="9">1N4148 (fast)</tspan></text><text x="230.39999999999998" y="105.39999999999999" dominant-baseline="ideographic" fill="black" font-size="8.5" font-family="sans" text-anchor="middle"><tspan x="230.39999999999998" dy="8.5">Cpk</tspan><tspan x="230.39999999999998" dy="8.5">0.1µF</tspan></text><text x="302.4" y="105.39999999999999" dominant-baseline="ideographic" fill="black" font-size="8.5" font-family="sans" text-anchor="middle"><tspan x="302.4" dy="8.5">Rbleed</tspan><tspan x="302.4" dy="8.5">1–3MΩ*</tspan></text><text x="374.4" y="105.39999999999999" dominant-baseline="ideographic" fill="black" font-size="8.5" font-family="sans" text-anchor="middle"><tspan x="374.4" dy="8.5">D2</tspan><tspan x="374.4" dy="8.5">3.3–3.6V clamp</tspan></text><text x="496.79999999999995" y="112.5" dominant-baseline="central" fill="black" font-size="9" font-family="sans" text-anchor="middle"><tspan x="496.79999999999995" dy="9">TO PCB</tspan><tspan x="496.79999999999995" dy="9">(J1: FENCE_ADC_IN)</tspan></text><text x="-36.0" y="-111.30000000000001" dominant-baseline="central" fill="black" font-size="10.5" font-family="sans" text-anchor="start"><tspan x="-36.0" dy="10.5">Hand-wired, off-board - real air-gap spacing required, not a PCB (up to 10 kV)</tspan></text><text x="-36.0" y="205.70000000000002" dominant-baseline="central" fill="black" font-size="8.5" font-family="sans" text-anchor="start"><tspan x="-36.0" dy="8.5">* Rbleed is empirical - tune on breadboard (Phase 2), record in docs/rc-tuning-results.md</tspan></text><circle cx="0" cy="-0" r="2.7" style="stroke:black;fill:white;stroke-width:2.0;stroke-dasharray:-;" /><text x="0.0" y="-26.3" dominant-baseline="ideographic" fill="black" font-size="10" font-family="sans" text-anchor="middle"><tspan x="0.0" dy="10">FENCE</tspan><tspan x="0.0" dy="10">(HV, ~10 kV pulses)</tspan></text><circle cx="-0" cy="126" r="2.7" style="stroke:black;fill:black;stroke-width:2.0;stroke-dasharray:-;" /><circle cx="230.4" cy="126" r="2.7" style="stroke:black;fill:black;stroke-width:2.0;stroke-dasharray:-;" /><circle cx="453.6" cy="126" r="2.7" style="stroke:black;fill:white;stroke-width:2.0;stroke-dasharray:-;" /></svg>