<svg xmlns="http://www.w3.org/2000/svg" xmlns:xlink="http://www.w3.org/1999/xlink" xml:lang="en" height="565.04pt" width="941.6pt" viewBox="-170.2 -206.2 941.6 565.04" style="background-color:white;"><path d="M -165.6,252.0 L -165.6,-201.6 L 766.8,-201.6 L 766.8,252 L -165.6,252" style="stroke:gray;fill:none;stroke-width:2.0;stroke-dasharray:7.4,3.2;stroke-linecap:round;stroke-linejoin:round;" /><circle cx="-86.4" cy="-57.6" r="18" style="stroke:black;fill:none;stroke-width:2.0;stroke-dasharray:-;" /><path d="M 169.20000000000002,18.0 L 262.8,18 L 262.8,-61.2 L 169.2,-61.2 L 169.2,18" style="stroke:black;fill:none;stroke-width:2.0;stroke-dasharray:-;stroke-linecap:round;stroke-linejoin:round;" /><path d="M 169.20000000000002,-0.0 L 151.2,-0" style="stroke:black;fill:none;stroke-width:2.0;stroke-dasharray:-;stroke-linecap:round;stroke-linejoin:round;" /><path d="M 169.20000000000002,-43.2 L 151.2,-43.2" style="stroke:black;fill:none;stroke-width:2.0;stroke-dasharray:-;stroke-linecap:round;stroke-linejoin:round;" /><path d="M 262.8,-0.0 L 280.8,-0" style="stroke:black;fill:none;stroke-width:2.0;stroke-dasharray:-;stroke-linecap:round;stroke-linejoin:round;" /><path d="M 262.8,-43.2 L 280.8,-43.2" style="stroke:black;fill:none;stroke-width:2.0;stroke-dasharray:-;stroke-linecap:round;stroke-linejoin:round;" /><path d="M 392.40000000000003,18.0 L 478.8,18 L 478.8,-39.6 L 392.4,-39.6 L 392.4,18" style="stroke:black;fill:none;stroke-width:2.0;stroke-dasharray:-;stroke-linecap:round;stroke-linejoin:round;" /><path d="M 392.40000000000003,-0.0 L 374.4,-0" style="stroke:black;fill:none;stroke-width:2.0;stroke-dasharray:-;stroke-linecap:round;stroke-linejoin:round;" /><path d="M 392.40000000000003,-21.6 L 374.4,-21.6" style="stroke:black;fill:none;stroke-width:2.0;stroke-dasharray:-;stroke-linecap:round;stroke-linejoin:round;" /><path d="M 478.8,-0.0 L 496.8,-0" style="stroke:black;fill:none;stroke-width:2.0;stroke-dasharray:-;stroke-linecap:round;stroke-linejoin:round;" /><path d="M 478.8,-21.6 L 496.8,-21.6" style="stroke:black;fill:none;stroke-width:2.0;stroke-dasharray:-;stroke-linecap:round;stroke-linejoin:round;" /><path d="M 637.1999999999999,18.0 L 745.2,18 L 745.2,-104.4 L 637.2,-104.4 L 637.2,18" style="stroke:black;fill:none;stroke-width:2.0;stroke-dasharray:-;stroke-linecap:round;stroke-linejoin:round;" /><path d="M 637.1999999999999,-0.0 L 619.2,-0" style="stroke:black;fill:none;stroke-width:2.0;stroke-dasharray:-;stroke-linecap:round;stroke-linejoin:round;" /><path d="M 637.1999999999999,-28.799999999999994 L 619.2,-28.8" style="stroke:black;fill:none;stroke-width:2.0;stroke-dasharray:-;stroke-linecap:round;stroke-linejoin:round;" /><path d="M 637.1999999999999,-57.59999999999999 L 619.2,-57.6" style="stroke:black;fill:none;stroke-width:2.0;stroke-dasharray:-;stroke-linecap:round;stroke-linejoin:round;" /><path d="M 637.1999999999999,-86.39999999999999 L 619.2,-86.4" style="stroke:black;fill:none;stroke-width:2.0;stroke-dasharray:-;stroke-linecap:round;stroke-linejoin:round;" /><path d="M 745.1999999999999,-43.199999999999996 L 763.2,-43.2" style="stroke:black;fill:none;stroke-width:2.0;stroke-dasharray:-;stroke-linecap:round;stroke-linejoin:round;" /><path d="M 280.8,-0.0 L 304.2,-0 L 327.6,-0" style="stroke:black;fill:none;stroke-width:2.0;stroke-dasharray:-;stroke-linecap:round;stroke-linejoin:round;" /><path d="M 327.6,-0.0 L 351,-0 L 374.4,-0" style="stroke:black;fill:none;stroke-width:2.0;stroke-dasharray:-;stroke-linecap:round;stroke-linejoin:round;" /><path d="M 280.8,-43.2 L 304.2,-43.2 L 327.6,-43.2" style="stroke:black;fill:none;stroke-width:2.0;stroke-dasharray:-;stroke-linecap:round;stroke-linejoin:round;" /><path d="M 327.6,-43.2 L 327.6,-32.4 L 327.6,-21.6" style="stroke:black;fill:none;stroke-width:2.0;stroke-dasharray:-;stroke-linecap:round;stroke-linejoin:round;" /><path d="M 327.6,-21.6 L 351,-21.6 L 374.4,-21.6" style="stroke:black;fill:none;stroke-width:2.0;stroke-dasharray:-;stroke-linecap:round;stroke-linejoin:round;" /><path d="M 496.8,-0.0 L 527.4,-0 L 558,-0" style="stroke:black;fill:none;stroke-width:2.0;stroke-dasharray:-;stroke-linecap:round;stroke-linejoin:round;" /><path d="M 558.0,-0.0 L 558,-28.8 L 558,-57.6" style="stroke:black;fill:none;stroke-width:2.0;stroke-dasharray:-;stroke-linecap:round;stroke-linejoin:round;" /><path d="M 558.0,-57.59999999999999 L 588.6,-57.6 L 619.2,-57.6" style="stroke:black;fill:none;stroke-width:2.0;stroke-dasharray:-;stroke-linecap:round;stroke-linejoin:round;" /><path d="M 496.8,-21.6 L 527.4,-21.6 L 558,-21.6" style="stroke:black;fill:none;stroke-width:2.0;stroke-dasharray:-;stroke-linecap:round;stroke-linejoin:round;" /><path d="M 558.0,-21.6 L 558,-54 L 558,-86.4" style="stroke:black;fill:none;stroke-width:2.0;stroke-dasharray:-;stroke-linecap:round;stroke-linejoin:round;" /><path d="M 558.0,-86.39999999999999 L 588.6,-86.4 L 619.2,-86.4" style="stroke:black;fill:none;stroke-width:2.0;stroke-dasharray:-;stroke-linecap:round;stroke-linejoin:round;" /><path d="M 496.8,-0.0 L 496.8,9 L 496.8,18" style="stroke:black;fill:none;stroke-width:2.0;stroke-dasharray:-;stroke-linecap:round;stroke-linejoin:round;" /><path d="M 496.8,18.0 L 496.8,32.4 L 487.8,32.4 L 505.8,32.4 M 490.5,36.72 L 503.1,36.72 M 495,41.04 L 498.6,41.04" style="stroke:black;fill:none;stroke-width:2.0;stroke-dasharray:-;stroke-linecap:round;stroke-linejoin:round;" /><path d="M -122.39999999999999,-57.6 L -104.4,-57.6 L -104.4,-57.6 M -68.4,-57.6 L -68.4,-57.6 L -50.4,-57.6" style="stroke:black;fill:none;stroke-width:2.0;stroke-dasharray:-;stroke-linecap:round;stroke-linejoin:round;" /><path d="M -90.0,-62.1 L -90,-53.1" style="stroke:black;fill:none;stroke-width:2.0;stroke-dasharray:-;stroke-linecap:round;stroke-linejoin:round;" /><path d="M -82.8,-67.5 L -82.8,-47.7" style="stroke:black;fill:none;stroke-width:2.0;stroke-dasharray:-;stroke-linecap:round;stroke-linejoin:round;" /><path d="M -104.39999999999999,-57.6 L -90,-57.6 M -82.8,-57.6 L -68.4,-57.6" style="stroke:black;fill:none;stroke-width:2.0;stroke-dasharray:-;stroke-linecap:round;stroke-linejoin:round;" /><path d="M -64.8,-90.0 L -69.236,-85.564" style="stroke:black;fill:none;stroke-width:2.0;stroke-dasharray:-;stroke-linecap:round;stroke-linejoin:round;" /><path d="M -74.186 -80.614 L -71.145 -87.473 L -67.327 -83.655 Z" style="stroke:black;fill:black;stroke-linecap:butt;stroke-linejoin:miter;" /><path d="M -57.599999999999994,-82.8 L -62.036,-78.364" style="stroke:black;fill:none;stroke-width:2.0;stroke-dasharray:-;stroke-linecap:round;stroke-linejoin:round;" /><path d="M -66.986 -73.414 L -63.945 -80.273 L -60.127 -76.455 Z" style="stroke:black;fill:black;stroke-linecap:butt;stroke-linejoin:miter;" /><path d="M -50.4,-57.6 L -34.2,-57.6 L -18,-57.6" style="stroke:black;fill:none;stroke-width:2.0;stroke-dasharray:-;stroke-linecap:round;stroke-linejoin:round;" /><path d="M -90.0,-57.6 L -29.7,-57.6 L 30.6,-57.6" style="stroke:black;fill:none;stroke-width:2.0;stroke-dasharray:-;stroke-linecap:round;stroke-linejoin:round;" /><path d="M 30.6,-57.6 L 30.6,-50.4 L 30.6,-43.2" style="stroke:black;fill:none;stroke-width:2.0;stroke-dasharray:-;stroke-linecap:round;stroke-linejoin:round;" /><path d="M 30.599999999999998,-43.2 L 90.9,-43.2 L 151.2,-43.2" style="stroke:black;fill:none;stroke-width:2.0;stroke-dasharray:-;stroke-linecap:round;stroke-linejoin:round;" /><path d="M -122.39999999999999,-57.6 L -122.4,-45 L -122.4,-32.4" style="stroke:black;fill:none;stroke-width:2.0;stroke-dasharray:-;stroke-linecap:round;stroke-linejoin:round;" /><path d="M -122.39999999999999,-32.400000000000006 L -106.2,-32.4 L -90,-32.4" style="stroke:black;fill:none;stroke-width:2.0;stroke-dasharray:-;stroke-linecap:round;stroke-linejoin:round;" /><path d="M -90.0,-32.4 L -29.7,-32.4 L 30.6,-32.4" style="stroke:black;fill:none;stroke-width:2.0;stroke-dasharray:-;stroke-linecap:round;stroke-linejoin:round;" /><path d="M 30.6,-32.4 L 30.6,-16.2 L 30.6,-0" style="stroke:black;fill:none;stroke-width:2.0;stroke-dasharray:-;stroke-linecap:round;stroke-linejoin:round;" /><path d="M 30.599999999999998,-0.0 L 90.9,-0 L 151.2,-0" style="stroke:black;fill:none;stroke-width:2.0;stroke-dasharray:-;stroke-linecap:round;stroke-linejoin:round;" /><path d="M 266.40000000000003,115.2 L 292.275,115.2 M 312.525,115.2 L 338.4,115.2" style="stroke:black;fill:none;stroke-width:2.0;stroke-dasharray:-;stroke-linecap:round;stroke-linejoin:round;" /><path d="M 292.27500000000003,101.7 L 292.275,128.7" style="stroke:black;fill:none;stroke-width:2.0;stroke-dasharray:-;stroke-linecap:round;stroke-linejoin:round;" /><path d="M 299.02500000000003,108.45 L 299.025,121.95" style="stroke:black;fill:none;stroke-width:2.0;stroke-dasharray:-;stroke-linecap:round;stroke-linejoin:round;" /><path d="M 305.77500000000003,101.7 L 305.775,128.7" style="stroke:black;fill:none;stroke-width:2.0;stroke-dasharray:-;stroke-linecap:round;stroke-linejoin:round;" /><path d="M 312.52500000000003,108.45 L 312.525,121.95" style="stroke:black;fill:none;stroke-width:2.0;stroke-dasharray:-;stroke-linecap:round;stroke-linejoin:round;" /><path d="M 266.40000000000003,115.2" style="stroke:black;fill:none;stroke-width:2.0;stroke-dasharray:-;stroke-linecap:round;stroke-linejoin:round;" /><path d="M 266.40000000000003,115.2 L 266.4,57.6 L 266.4,-0" style="stroke:black;fill:none;stroke-width:2.0;stroke-dasharray:-;stroke-linecap:round;stroke-linejoin:round;" /><path d="M 266.40000000000003,-0.0 L 273.6,-0 L 280.8,-0" style="stroke:black;fill:none;stroke-width:2.0;stroke-dasharray:-;stroke-linecap:round;stroke-linejoin:round;" /><path d="M 338.40000000000003,115.2 L 347.4,115.2 L 356.4,115.2" style="stroke:black;fill:none;stroke-width:2.0;stroke-dasharray:-;stroke-linecap:round;stroke-linejoin:round;" /><path d="M 356.40000000000003,115.2 L 356.4,36 L 356.4,-43.2" style="stroke:black;fill:none;stroke-width:2.0;stroke-dasharray:-;stroke-linecap:round;stroke-linejoin:round;" /><path d="M 356.40000000000003,-43.2 L 394.2,-43.2 L 432,-43.2" style="stroke:black;fill:none;stroke-width:2.0;stroke-dasharray:-;stroke-linecap:round;stroke-linejoin:round;" /><path d="M 518.4,-158.4 L 543.6,-158.4 L 568.8,-158.4" style="stroke:black;fill:none;stroke-width:2.0;stroke-dasharray:-;stroke-linecap:round;stroke-linejoin:round;" /><path d="M 568.8000000000001,-158.4 L 568.8,-93.6 L 568.8,-28.8" style="stroke:black;fill:none;stroke-width:2.0;stroke-dasharray:-;stroke-linecap:round;stroke-linejoin:round;" /><path d="M 568.8000000000001,-28.799999999999994 L 594,-28.8 L 619.2,-28.8" style="stroke:black;fill:none;stroke-width:2.0;stroke-dasharray:-;stroke-linecap:round;stroke-linejoin:round;" /><path d="M 280.8,-43.199999999999996 L 320.4,-43.2 L 360,-43.2" style="stroke:black;fill:none;stroke-width:2.0;stroke-dasharray:-;stroke-linecap:round;stroke-linejoin:round;" /><path d="M 360.0,-43.199999999999996 L 360,64.8 L 360,172.8" style="stroke:black;fill:none;stroke-width:2.0;stroke-dasharray:-;stroke-linecap:round;stroke-linejoin:round;" /><path d="M 359.99999999999994,172.79999999999998 L 455.4,172.8 L 550.8,172.8" style="stroke:black;fill:none;stroke-width:2.0;stroke-dasharray:-;stroke-linecap:round;stroke-linejoin:round;" /><path d="M 550.8000000000001,172.79999999999998 L 550.8,180 L 550.8,187.2" style="stroke:black;fill:none;stroke-width:2.0;stroke-dasharray:-;stroke-linecap:round;stroke-linejoin:round;" /><path d="M 550.8000000000001,187.20000000000002 L 550.8,205.2 L 559.8,208.2 L 541.8,214.2 L 559.8,220.2 L 541.8,226.2 L 559.8,232.2 L 541.8,238.2 L 550.8,241.2 L 550.8,259.2" style="stroke:black;fill:none;stroke-width:2.0;stroke-dasharray:-;stroke-linecap:round;stroke-linejoin:round;" /><path d="M 550.8000000000001,259.2 L 550.8,277.2 L 559.8,280.2 L 541.8,286.2 L 559.8,292.2 L 541.8,298.2 L 559.8,304.2 L 541.8,310.2 L 550.8,313.2 L 550.8,331.2" style="stroke:black;fill:none;stroke-width:2.0;stroke-dasharray:-;stroke-linecap:round;stroke-linejoin:round;" /><path d="M 550.8000000000001,331.2 L 550.8,345.6 L 541.8,345.6 L 559.8,345.6 M 544.5,349.92 L 557.1,349.92 M 549,354.24 L 552.6,354.24" style="stroke:black;fill:none;stroke-width:2.0;stroke-dasharray:-;stroke-linecap:round;stroke-linejoin:round;" /><path d="M 550.8000000000001,259.2 L 568.8,259.2 L 586.8,259.2" style="stroke:black;fill:none;stroke-width:2.0;stroke-dasharray:-;stroke-linecap:round;stroke-linejoin:round;" /><path d="M 586.8000000000001,259.2 L 586.8,129.6 L 586.8,-0" style="stroke:black;fill:none;stroke-width:2.0;stroke-dasharray:-;stroke-linecap:round;stroke-linejoin:round;" /><path d="M 586.8000000000001,-0.0 L 603,-0 L 619.2,-0" style="stroke:black;fill:none;stroke-width:2.0;stroke-dasharray:-;stroke-linecap:round;stroke-linejoin:round;" /><text x="174.60000000000002" y="-14.0" dominant-baseline="central" fill="black" font-size="14" font-family="sans" text-anchor="start"><tspan x="174.60000000000002" dy="14">IN-</tspan></text><text x="174.60000000000002" y="-57.2" dominant-baseline="central" fill="black" font-size="14" font-family="sans" text-anchor="start"><tspan x="174.60000000000002" dy="14">IN+</tspan></text><text x="257.40000000000003" y="-14.0" dominant-baseline="central" fill="black" font-size="14" font-family="sans" text-anchor="end"><tspan x="257.40000000000003" dy="14">BAT-</tspan></text><text x="257.40000000000003" y="-57.2" dominant-baseline="central" fill="black" font-size="14" font-family="sans" text-anchor="end"><tspan x="257.40000000000003" dy="14">BAT+</tspan></text><text x="216.0" y="-83.80000000000001" dominant-baseline="ideographic" fill="black" font-size="9.5" font-family="sans" text-anchor="middle"><tspan x="216.0" dy="9.5">TP4056</tspan><tspan x="216.0" dy="9.5">charge ctrl</tspan></text><text x="397.8" y="-14.0" dominant-baseline="central" fill="black" font-size="14" font-family="sans" text-anchor="start"><tspan x="397.8" dy="14">IN-</tspan></text><text x="397.8" y="-35.6" dominant-baseline="central" fill="black" font-size="14" font-family="sans" text-anchor="start"><tspan x="397.8" dy="14">IN+</tspan></text><text x="473.40000000000003" y="-14.0" dominant-baseline="central" fill="black" font-size="14" font-family="sans" text-anchor="end"><tspan x="473.40000000000003" dy="14">GND</tspan></text><text x="473.40000000000003" y="-35.6" dominant-baseline="central" fill="black" font-size="14" font-family="sans" text-anchor="end"><tspan x="473.40000000000003" dy="14">3V3</tspan></text><text x="435.59999999999997" y="-62.2" dominant-baseline="ideographic" fill="black" font-size="9.5" font-family="sans" text-anchor="middle"><tspan x="435.59999999999997" dy="9.5">Buck/</tspan><tspan x="435.59999999999997" dy="9.5">Boost</tspan></text><text x="642.5999999999999" y="-14.0" dominant-baseline="central" fill="black" font-size="14" font-family="sans" text-anchor="start"><tspan x="642.5999999999999" dy="14">ADC35</tspan></text><text x="642.5999999999999" y="-42.8" dominant-baseline="central" fill="black" font-size="14" font-family="sans" text-anchor="start"><tspan x="642.5999999999999" dy="14">ADC34</tspan></text><text x="642.5999999999999" y="-71.6" dominant-baseline="central" fill="black" font-size="14" font-family="sans" text-anchor="start"><tspan x="642.5999999999999" dy="14">GND</tspan></text><text x="642.5999999999999" y="-100.39999999999999" dominant-baseline="central" fill="black" font-size="14" font-family="sans" text-anchor="start"><tspan x="642.5999999999999" dy="14">3V3</tspan></text><text x="739.8000000000001" y="-57.199999999999996" dominant-baseline="central" fill="black" font-size="14" font-family="sans" text-anchor="end"><tspan x="739.8000000000001" dy="14">ANT</tspan></text><text x="691.1999999999999" y="-127.0" dominant-baseline="ideographic" fill="black" font-size="9.5" font-family="sans" text-anchor="middle"><tspan x="691.1999999999999" dy="9.5">ESP32</tspan><tspan x="691.1999999999999" dy="9.5">module</tspan></text><text x="-126.0" y="-81.0" dominant-baseline="central" fill="black" font-size="9" font-family="sans" text-anchor="end"><tspan x="-126.0" dy="9">SOLAR</tspan><tspan x="-126.0" dy="9">5-6W</tspan></text><text x="302.40000000000003" y="123.30000000000001" dominant-baseline="hanging" fill="black" font-size="9" font-family="sans" text-anchor="middle"><tspan x="302.40000000000003" dy="9">18650</tspan><tspan x="302.40000000000003" dy="9">Li-ion</tspan></text><text x="550.8000000000001" y="175.60000000000002" dominant-baseline="ideographic" fill="black" font-size="8" font-family="sans" text-anchor="middle"><tspan x="550.8000000000001" dy="8">100k</tspan></text><text x="550.8000000000001" y="247.60000000000002" dominant-baseline="ideographic" fill="black" font-size="8" font-family="sans" text-anchor="middle"><tspan x="550.8000000000001" dy="8">100k</tspan></text><text x="-147.60000000000002" y="-200.0" dominant-baseline="central" fill="black" font-size="11" font-family="sans" text-anchor="start"><tspan x="-147.60000000000002" dy="11">PCB - Logic and Power board  (KiCad target, fab at JLCPCB)</tspan></text><text x="-147.60000000000002" y="224.85000000000002" dominant-baseline="central" fill="black" font-size="8.5" font-family="sans" text-anchor="start"><tspan x="-147.60000000000002" dy="8.5">HV sensing chain (divider + peak detector) stays hand-wired off-board.</tspan><tspan x="-147.60000000000002" dy="8.5">See voltage-divider-schematic.svg</tspan></text><circle cx="-18" cy="-57.6" r="2.7" style="stroke:black;fill:black;stroke-width:2.0;stroke-dasharray:-;" /><text x="-17.999999999999996" y="-78.9" dominant-baseline="ideographic" fill="black" font-size="7.5" font-family="sans" text-anchor="middle"><tspan x="-17.999999999999996" dy="7.5">J2.1</tspan><tspan x="-17.999999999999996" dy="7.5">SOLAR+</tspan></text><circle cx="-90" cy="-32.4" r="2.7" style="stroke:black;fill:black;stroke-width:2.0;stroke-dasharray:-;" /><text x="-90.0" y="-33.6" dominant-baseline="hanging" fill="black" font-size="7.5" font-family="sans" text-anchor="middle"><tspan x="-90.0" dy="7.5">J2.2</tspan><tspan x="-90.0" dy="7.5">SOLAR-</tspan></text><circle cx="518.4" cy="-158.4" r="2.7" style="stroke:black;fill:white;stroke-width:2.0;stroke-dasharray:-;" /><text x="518.4" y="-180.70000000000002" dominant-baseline="ideographic" fill="black" font-size="8" font-family="sans" text-anchor="middle"><tspan x="518.4" dy="8">J1: FENCE_ADC_IN (from HV sensing</tspan><tspan x="518.4" dy="8">chain, post-Zener clamp)</tspan></text><circle cx="550.8" cy="259.2" r="2.7" style="stroke:black;fill:black;stroke-width:2.0;stroke-dasharray:-;" /></svg>